<?xml version="1.0" encoding="UTF-8"?>
<svg id="Capa_1" xmlns="http://www.w3.org/2000/svg" version="1.1" viewBox="0 0 494 116.8">
  <!-- Generator: Adobe Illustrator 29.3.0, SVG Export Plug-In . SVG Version: 2.1.0 Build 146)  -->
  <defs>
    <style>
      .st0 {
        isolation: isolate;
      }

      .st1 {
        fill: #16627c;
      }
    </style>
  </defs>
  <g class="st0">
    <g class="st0">
      <path class="st1" d="M13.9,68V10.3h4.2v57.7h-4.2ZM16.8,39.9v-3h15.4c4,0,6.9-1.1,8.8-3.2,1.9-2.1,2.8-4.8,2.8-8.2s-.9-6-2.8-8.1c-1.9-2.1-4.8-3.2-8.8-3.2h-15.4v-3.8h14.6c5.6,0,9.8,1.3,12.6,4,2.7,2.7,4.1,6.3,4.1,10.7v.8c0,3.1-.7,5.7-2,7.8-1.4,2.1-3.3,3.7-5.8,4.7-2.5,1-5.4,1.6-8.9,1.6h-14.6ZM16.8,68v-3.8h17.5c3.7,0,6.6-1.1,8.7-3.3,2.1-2.2,3.1-5,3.1-8.5s-1-6.3-3.1-8.5c-2-2.2-5-3.3-8.8-3.3h-17.5v-3h16.8c3.3,0,6.3.5,8.8,1.6,2.5,1.1,4.5,2.7,5.9,4.8,1.4,2.1,2.2,4.8,2.2,7.9v.8c0,2.9-.6,5.5-1.8,7.8-1.2,2.3-3.1,4.1-5.6,5.4-2.5,1.3-5.6,2-9.4,2h-16.8Z"/>
    </g>
    <g class="st0">
      <path class="st1" d="M80.6,69.1c-3.5,0-6.5-.6-9.1-1.8-2.6-1.2-4.6-2.9-6.3-4.9-1.6-2.1-2.8-4.4-3.6-7-.8-2.6-1.2-5.2-1.2-7.9v-.8c0-2.7.4-5.3,1.2-7.8.8-2.5,2-4.8,3.7-6.9,1.6-2.1,3.7-3.7,6.2-4.9,2.5-1.2,5.4-1.8,8.7-1.8s7.7.9,10.5,2.8c2.8,1.9,5,4.3,6.5,7.2,1.5,3,2.2,6.1,2.2,9.4v2.8h-37v-3.4h34.2l-1.3,1.6c0-3.2-.6-6-1.8-8.5-1.2-2.5-2.9-4.5-5.2-5.9-2.3-1.4-5-2.2-8.3-2.2s-6.4.8-8.8,2.4c-2.4,1.6-4.1,3.8-5.3,6.5-1.2,2.7-1.8,5.7-1.8,9s.6,6.3,1.8,9c1.2,2.7,3,5,5.4,6.7,2.4,1.7,5.5,2.5,9.2,2.5s7.2-.9,9.6-2.7c2.4-1.8,3.9-4,4.4-6.6h4.1c-.6,2.6-1.7,4.8-3.3,6.8-1.6,2-3.7,3.5-6.1,4.6-2.5,1.1-5.4,1.6-8.7,1.6Z"/>
      <path class="st1" d="M122,68.8c-2.8,0-5.2-.5-7.4-1.5-2.2-1-3.9-2.5-5.2-4.4-1.3-1.9-1.9-4.3-1.9-7s.6-4.9,1.8-6.8c1.2-1.9,3-3.3,5.3-4.3,2.3-1,5.1-1.5,8.4-1.5h12.9v3.4h-13.3c-3.6,0-6.3.8-8.2,2.5-1.9,1.7-2.9,3.9-2.9,6.7s1,5.2,3.1,6.9c2,1.7,4.7,2.5,8,2.5s4-.4,6-1.2c1.9-.8,3.6-2.1,4.9-4,1.3-1.9,2-4.3,2.1-7.5l1.6,1.8c-.2,3.2-.9,5.8-2.3,8-1.4,2.1-3.2,3.7-5.4,4.7s-4.7,1.6-7.4,1.6ZM136.4,67.8v-12.3h-.8v-15.1c0-3.3-.9-5.8-2.6-7.6s-4.6-2.7-8.5-2.7-2.8,0-4.3.1c-1.5,0-2.8.2-4.2.2-1.3,0-2.5.2-3.5.4v-3.8c1-.2,2.2-.3,3.3-.4s2.4-.2,3.6-.2c1.2,0,2.4,0,3.4,0,4.1,0,7.4.5,9.9,1.6,2.5,1.1,4.2,2.7,5.3,4.9,1.1,2.2,1.6,4.9,1.6,8.3v26.8h-3.3Z"/>
      <path class="st1" d="M172.1,69.1c-3.4,0-6.4-.6-8.9-1.9-2.5-1.3-4.6-2.9-6.3-5-1.7-2.1-3-4.4-3.8-7-.8-2.6-1.3-5.1-1.3-7.8v-.8c0-2.7.4-5.3,1.3-7.8.8-2.6,2.1-4.8,3.8-6.9,1.7-2,3.8-3.6,6.3-4.8,2.5-1.2,5.5-1.8,8.9-1.8s6.2.6,8.8,1.8c2.6,1.2,4.7,2.9,6.3,5.1s2.7,4.8,3.1,7.8h-4.1c-.5-3.1-1.9-5.7-4.4-7.8-2.5-2.1-5.7-3.1-9.8-3.1s-6.6.8-9,2.4c-2.4,1.6-4.2,3.8-5.4,6.5-1.2,2.7-1.8,5.7-1.8,9s.6,6.2,1.8,8.9c1.2,2.8,3,5,5.4,6.7,2.4,1.7,5.4,2.5,8.9,2.5s5.2-.5,7.3-1.5c2.1-1,3.8-2.4,5.1-4.1,1.3-1.7,2.1-3.6,2.4-5.6h4.1c-.4,3-1.4,5.7-3.1,7.9-1.7,2.2-3.9,4-6.7,5.2-2.7,1.3-5.7,1.9-9.1,1.9Z"/>
      <path class="st1" d="M202.4,67.8V10.6h4.2v30.5l-1.5,2.7c0-3.6.6-6.8,1.7-9.5,1.1-2.7,2.8-4.9,5.1-6.4,2.3-1.5,5.2-2.3,8.7-2.3h.2c5.1,0,9,1.6,11.6,4.8,2.6,3.2,3.9,7.6,3.9,13.1v24.3h-4.2v-25.2c0-4-1.1-7.2-3.2-9.6-2.1-2.4-5.2-3.6-9.1-3.6s-7.2,1.3-9.6,3.8c-2.4,2.5-3.6,5.8-3.6,9.9v24.7h-4.2Z"/>
      <path class="st1" d="M271.3,69.1c-4.9,0-8.9-.8-12.1-2.3-3.2-1.5-5.7-3.7-7.3-6.3-1.6-2.7-2.4-5.7-2.4-9.1h4.2c0,2.6.6,5,1.8,7,1.2,2.1,3.1,3.7,5.8,5,2.6,1.2,6,1.8,10,1.8s7-.5,9.6-1.6,4.5-2.6,5.8-4.5c1.3-1.9,1.9-4.1,1.9-6.6s-1.1-5.7-3.4-7.9c-2.3-2.2-5.8-3.5-10.5-4l-6.8-.5c-4.8-.4-8.5-1.9-11.3-4.5-2.8-2.6-4.2-6-4.2-10.3s.7-5.8,2.1-8.2c1.4-2.4,3.5-4.4,6.3-5.8,2.8-1.4,6.3-2.2,10.4-2.2s7.7.8,10.6,2.3c2.9,1.5,5.1,3.6,6.5,6.2,1.5,2.6,2.2,5.5,2.2,8.7h-4.2c0-2.3-.5-4.5-1.6-6.5-1-2-2.7-3.6-4.9-4.9-2.2-1.3-5.1-1.9-8.7-1.9s-6.2.6-8.4,1.7c-2.1,1.1-3.7,2.6-4.7,4.5-1,1.9-1.5,3.9-1.5,6.1,0,3.1,1,5.6,3,7.5,2,1.9,4.9,3,8.7,3.4l6.8.5c3.8.3,7,1.2,9.7,2.6,2.6,1.4,4.6,3.3,6,5.5,1.4,2.2,2,4.8,2,7.6s-.8,6-2.5,8.6c-1.7,2.5-4.1,4.5-7.3,6-3.2,1.4-7.1,2.2-11.7,2.2Z"/>
      <path class="st1" d="M307,67.8V10.6h4.2v30.5l-1.5,2.7c0-3.6.6-6.8,1.7-9.5,1.1-2.7,2.8-4.9,5.1-6.4,2.3-1.5,5.2-2.3,8.7-2.3h.2c5.1,0,9,1.6,11.6,4.8,2.6,3.2,3.9,7.6,3.9,13.1v24.3h-4.2v-25.2c0-4-1.1-7.2-3.2-9.6-2.1-2.4-5.2-3.6-9.1-3.6s-7.2,1.3-9.6,3.8c-2.4,2.5-3.6,5.8-3.6,9.9v24.7h-4.2Z"/>
      <path class="st1" d="M367.2,68.8c-2.8,0-5.2-.5-7.4-1.5s-3.9-2.5-5.2-4.4c-1.3-1.9-1.9-4.3-1.9-7s.6-4.9,1.8-6.8c1.2-1.9,3-3.3,5.3-4.3,2.3-1,5.1-1.5,8.4-1.5h12.9v3.4h-13.3c-3.6,0-6.3.8-8.2,2.5-1.9,1.7-2.9,3.9-2.9,6.7s1,5.2,3.1,6.9c2,1.7,4.7,2.5,8,2.5s4-.4,6-1.2c1.9-.8,3.6-2.1,4.9-4,1.3-1.9,2-4.3,2.1-7.5l1.6,1.8c-.2,3.2-.9,5.8-2.3,8-1.4,2.1-3.2,3.7-5.4,4.7-2.2,1-4.7,1.6-7.4,1.6ZM381.5,67.8v-12.3h-.8v-15.1c0-3.3-.9-5.8-2.6-7.6s-4.6-2.7-8.5-2.7-2.8,0-4.3.1c-1.5,0-2.8.2-4.2.2-1.3,0-2.5.2-3.5.4v-3.8c1-.2,2.2-.3,3.3-.4s2.4-.2,3.6-.2c1.2,0,2.4,0,3.4,0,4.1,0,7.4.5,9.9,1.6,2.5,1.1,4.2,2.7,5.3,4.9,1.1,2.2,1.6,4.9,1.6,8.3v26.8h-3.3Z"/>
      <path class="st1" d="M417.2,69.1c-3.4,0-6.4-.6-8.9-1.9-2.5-1.3-4.6-2.9-6.3-5-1.7-2.1-3-4.4-3.8-7-.8-2.6-1.3-5.1-1.3-7.8v-.8c0-2.7.4-5.3,1.3-7.8.8-2.6,2.1-4.8,3.8-6.9,1.7-2,3.8-3.6,6.3-4.8,2.5-1.2,5.5-1.8,8.9-1.8s6.2.6,8.8,1.8c2.6,1.2,4.7,2.9,6.3,5.1,1.6,2.2,2.7,4.8,3.1,7.8h-4.1c-.5-3.1-1.9-5.7-4.4-7.8-2.5-2.1-5.7-3.1-9.8-3.1s-6.6.8-9,2.4c-2.4,1.6-4.2,3.8-5.4,6.5-1.2,2.7-1.8,5.7-1.8,9s.6,6.2,1.8,8.9,3,5,5.4,6.7c2.4,1.7,5.4,2.5,8.9,2.5s5.2-.5,7.3-1.5c2.1-1,3.8-2.4,5.1-4.1,1.3-1.7,2.1-3.6,2.3-5.6h4.1c-.4,3-1.4,5.7-3.1,7.9-1.7,2.2-3.9,4-6.7,5.2-2.7,1.3-5.7,1.9-9.1,1.9Z"/>
      <path class="st1" d="M447.6,67.8V10.6h4.2v57.2h-4.2ZM475.1,67.8l-17.5-19.3h-6.6l20.1-21.8h4.7l-17.9,19.3v-2.6c0,0,22.2,24.4,22.2,24.4h-5Z"/>
    </g>
    <g class="st0">
      <path class="st1" d="M112.1,107.4c-1.5,0-2.9-.3-3.9-.8-1.1-.5-1.9-1.2-2.4-2.1-.6-.9-.8-1.9-.8-3h2.9c0,.5.1,1,.4,1.5.3.5.7.9,1.4,1.2s1.5.5,2.5.5,1.8-.1,2.4-.4,1.1-.6,1.4-1.1c.3-.5.5-1,.5-1.5s-.3-1.3-.9-1.7c-.6-.4-1.5-.7-2.7-.8l-1.8-.2c-1.7-.1-3-.6-4-1.5s-1.5-2.1-1.5-3.5.3-2.1.8-2.9c.5-.8,1.3-1.5,2.3-1.9s2.1-.7,3.4-.7,2.5.2,3.4.7c1,.5,1.7,1.1,2.3,2,.5.8.8,1.9.8,3h-2.9c0-.5-.1-1-.4-1.5-.3-.5-.6-.8-1.2-1.1-.5-.3-1.2-.4-2-.4s-1.4.1-2,.4c-.5.3-.9.6-1.2,1.1-.3.4-.4.9-.4,1.4s.2,1.1.7,1.6c.5.5,1.2.7,2.1.8h1.8c1.3.2,2.4.5,3.3.9.9.4,1.6,1,2.2,1.7.5.7.8,1.6.8,2.6s-.3,2.1-.9,3c-.6.9-1.4,1.5-2.5,2-1.1.5-2.3.7-3.8.7Z"/>
      <path class="st1" d="M131.9,107.4c-1.7,0-3-.3-4.2-.9-1.1-.6-2-1.5-2.6-2.7s-.9-2.5-.9-4v-10.8h3v11c0,.9.2,1.7.5,2.4.4.7.9,1.3,1.6,1.6.7.4,1.5.6,2.5.6s1.8-.2,2.5-.6c.7-.4,1.2-.9,1.6-1.6.4-.7.5-1.5.5-2.5v-11h3v10.8c0,1.5-.3,2.9-.9,4-.6,1.1-1.4,2-2.5,2.7-1.1.6-2.5.9-4.2.9Z"/>
    </g>
    <g class="st0">
      <path class="st1" d="M152,107.4c-1.5,0-2.9-.3-3.9-.8-1.1-.5-1.9-1.2-2.4-2.1-.6-.9-.8-1.9-.8-3h2.9c0,.5.1,1,.4,1.5.3.5.7.9,1.4,1.2s1.5.5,2.5.5,1.8-.1,2.4-.4,1.1-.6,1.4-1.1c.3-.5.5-1,.5-1.5s-.3-1.3-.9-1.7c-.6-.4-1.5-.7-2.7-.8l-1.8-.2c-1.7-.1-3-.6-4-1.5s-1.5-2.1-1.5-3.5.3-2.1.8-2.9c.5-.8,1.3-1.5,2.3-1.9s2.1-.7,3.4-.7,2.5.2,3.4.7c1,.5,1.7,1.1,2.3,2,.5.8.8,1.9.8,3h-2.9c0-.5-.1-1-.4-1.5-.3-.5-.6-.8-1.2-1.1-.5-.3-1.2-.4-2-.4s-1.4.1-2,.4c-.5.3-.9.6-1.2,1.1-.3.4-.4.9-.4,1.4s.2,1.1.7,1.6c.5.5,1.2.7,2.1.8h1.8c1.3.2,2.4.5,3.3.9.9.4,1.6,1,2.2,1.7.5.7.8,1.6.8,2.6s-.3,2.1-.9,3c-.6.9-1.4,1.5-2.5,2-1.1.5-2.3.7-3.8.7Z"/>
    </g>
    <g class="st0">
      <path class="st1" d="M162.4,91.5v-2.6h13.6v2.6h-13.6ZM167.7,106.9v-15.9h3v15.9h-3Z"/>
    </g>
    <g class="st0">
      <path class="st1" d="M177.6,106.9l6.3-18h4.9l6.5,18h-3.1l-5.7-16,1.2.6h-3l1.3-.6-5.5,16h-3ZM181.7,101.8l.9-2.6h7.5l1,2.6h-9.4Z"/>
      <path class="st1" d="M200,106.9v-18h3v18h-3Z"/>
      <path class="st1" d="M209.6,106.9v-18h4.8l8.3,15.4h.8l-.5.4v-15.9h2.8v18h-4.9l-8.3-15.4h-.8l.5-.4v15.9h-2.8Z"/>
      <path class="st1" d="M230.6,106.9l6.3-18h4.9l6.5,18h-3.1l-5.7-16,1.2.6h-3l1.3-.6-5.5,16h-3ZM234.7,101.8l.9-2.6h7.5l1,2.6h-9.4Z"/>
      <path class="st1" d="M253,107v-18.2h2.9v18.2h-2.9ZM255.4,98.5v-1.8h4.1c.9,0,1.6-.2,2.1-.8.4-.5.7-1.1.7-1.9s-.2-1.5-.7-2c-.4-.5-1.1-.8-2.1-.8h-4.1v-2.5h3.7c2,0,3.5.4,4.5,1.3,1,.8,1.5,2.1,1.5,3.6v.3c0,1.1-.3,2-.8,2.7-.5.7-1.2,1.1-2.1,1.4s-2,.4-3.1.4h-3.7ZM255.4,107v-2.5h4.8c.9,0,1.6-.2,2.1-.7.5-.5.7-1.2.7-2s-.2-1.5-.7-2c-.5-.5-1.2-.7-2.1-.7h-4.8v-1.9h4.5c1.2,0,2.2.1,3.1.4.9.3,1.6.8,2.1,1.4.5.7.8,1.6.8,2.7v.3c0,1.1-.2,1.9-.7,2.7-.5.7-1.1,1.3-2,1.7-.9.4-2,.6-3.4.6h-4.5Z"/>
      <path class="st1" d="M271.5,106.9v-18h3v18h-3ZM274,106.9v-2.6h8v2.6h-8Z"/>
      <path class="st1" d="M286.8,106.9v-18h2.9v18h-2.9ZM289.2,91.5v-2.6h8.2v2.6h-8.2ZM289.2,99.1v-2.6h7.7v2.6h-7.7ZM289.2,106.9v-2.6h8.4v2.6h-8.4Z"/>
    </g>
    <g class="st0">
      <path class="st1" d="M319.3,107.4c-1.6,0-3-.3-4.2-.8-1.2-.6-2.1-1.3-2.8-2.2-.7-.9-1.2-1.9-1.6-3-.3-1.1-.5-2.1-.5-3.1v-.5c0-1.1.2-2.2.5-3.3.3-1.1.9-2.1,1.6-3s1.6-1.6,2.8-2.1c1.1-.5,2.5-.8,4-.8s3,.3,4.2.9c1.2.6,2.1,1.4,2.8,2.4.7,1,1.1,2.2,1.2,3.6h-3c-.1-.9-.4-1.7-.9-2.3-.5-.6-1.1-1.1-1.8-1.4-.7-.3-1.6-.5-2.5-.5s-1.8.2-2.6.5c-.7.3-1.4.8-1.9,1.4s-.9,1.3-1.1,2.1c-.3.8-.4,1.7-.4,2.7s.1,1.8.4,2.6c.3.8.6,1.5,1.1,2.2.5.6,1.1,1.1,1.9,1.5.8.3,1.6.5,2.6.5,1.4,0,2.7-.4,3.6-1.1,1-.7,1.6-1.7,1.8-3.1h3c-.2,1.3-.6,2.4-1.3,3.5-.7,1-1.6,1.9-2.8,2.5-1.2.6-2.6.9-4.3.9Z"/>
    </g>
    <g class="st0">
      <path class="st1" d="M330.9,106.9l6.3-18h4.9l6.5,18h-3.1l-5.7-16,1.2.6h-3l1.3-.6-5.5,16h-3ZM335,101.8l.9-2.6h7.5l1,2.6h-9.4Z"/>
      <path class="st1" d="M353.5,106.9v-18.1h3v18.1h-3ZM355.5,100.7v-2.5h4.7c.7,0,1.3-.1,1.8-.4s.9-.7,1.2-1.2c.3-.5.4-1.1.4-1.8s-.1-1.2-.4-1.7c-.3-.5-.7-.9-1.2-1.2-.5-.3-1.1-.4-1.8-.4h-4.7v-2.6h4.3c1.4,0,2.6.2,3.6.6,1,.4,1.8,1,2.4,1.9.6.8.8,1.9.8,3.2v.4c0,1.3-.3,2.4-.8,3.2-.6.8-1.4,1.5-2.4,1.9-1,.4-2.2.6-3.6.6h-4.3ZM364.5,106.9l-5.7-7.9h3.3l5.9,7.9h-3.5Z"/>
      <path class="st1" d="M373,106.9v-18h2.9v18h-2.9ZM375.4,91.5v-2.6h8.2v2.6h-8.2ZM375.4,99.1v-2.6h7.7v2.6h-7.7ZM375.4,106.9v-2.6h8.4v2.6h-8.4Z"/>
    </g>
  </g>
</svg>